<?xml version="1.0" encoding="UTF-8" standalone="no"?>
<!DOCTYPE svg PUBLIC "-//W3C//DTD SVG 1.1//EN"
 "http://www.w3.org/Graphics/SVG/1.1/DTD/svg11.dtd">
<!-- Generated by graphviz version 2.29.20121007.0445 (20121007.0445)
 -->
<!-- Title: G Pages: 1 -->
<svg width="190pt" height="96pt"
 viewBox="0.00 0.00 190.00 96.00" xmlns="http://www.w3.org/2000/svg" xmlns:xlink="http://www.w3.org/1999/xlink">
<g id="graph0" class="graph" transform="scale(1 1) rotate(0) translate(4 92)">
<title>G</title>
<polygon fill="white" stroke="white" points="-4,5 -4,-92 187,-92 187,5 -4,5"/>
<g id="clust1" class="cluster"><title>cluster_global</title>
<path fill="none" stroke="gray" d="M20,-8C20,-8 162,-8 162,-8 168,-8 174,-14 174,-20 174,-20 174,-68 174,-68 174,-74 168,-80 162,-80 162,-80 20,-80 20,-80 14,-80 8,-74 8,-68 8,-68 8,-20 8,-20 8,-14 14,-8 20,-8"/>
<text text-anchor="middle" x="91" y="-67.2" font-family="Times,serif" font-size="11.00" fill="gray">global</text>
</g>
<!-- \\JMToolkit_CSV_Parser -->
<g id="node1" class="node"><title>\\JMToolkit_CSV_Parser</title>
<g id="a_node1"><a xlink:href="Parser.html" xlink:title="JMToolkit_CSV_Parser" target="_parent">
<polygon fill="none" stroke="black" points="165.5,-52 16.5,-52 16.5,-16 165.5,-16 165.5,-52"/>
<text text-anchor="middle" x="91" y="-31.2" font-family="Courier,monospace" font-size="11.00">JMToolkit_CSV_Parser</text>
</a>
</g>
</g>
</g>
</svg>
